<svg xmlns="http://www.w3.org/2000/svg" id="Layer_1" enable-background="new 0 0 512 512" height="512" viewBox="0 0 512 512" width="512"><g><path d="m79.267 337.4h-64.267c-8.284 0-15 6.716-15 15v47.133c0 17.776 14.387 32.134 32.134 32.134 34.315 0 62.133-27.818 62.133-62.133v-17.134c0-8.284-6.716-15-15-15z" fill="#ffb400"/><path d="m432.733 337.4h64.267c8.284 0 15 6.716 15 15v47.133c0 17.776-14.387 32.134-32.134 32.134-34.315 0-62.133-27.818-62.133-62.133v-17.134c0-8.284 6.716-15 15-15z" fill="#ff8200"/><path d="m447.733 399.533v-207.8c0-105.721-86.01-191.733-191.733-191.733s-191.733 86.012-191.733 191.733v207.8c0 17.718-14.415 32.134-32.133 32.134h447.733c-17.719 0-32.134-14.416-32.134-32.134z" fill="#ffe100"/><path d="m256 0c105.723 0 191.733 86.012 191.733 191.733v207.8c0 17.718 14.415 32.134 32.133 32.134h-223.866z" fill="#ffb400"/><path d="m400.6 303.134h-32.133c-8.284 0-15-6.716-15-15v-64.268c0-8.284 6.716-15 15-15h32.133c25.989 0 47.134 21.145 47.134 47.134s-21.145 47.134-47.134 47.134z" fill="#c36e64"/><path d="m143.533 303.134h-32.133c-25.989 0-47.134-21.145-47.134-47.134s21.145-47.134 47.134-47.134h32.133c8.284 0 15 6.716 15 15v64.268c0 8.284-6.716 15-15 15z" fill="#e19682"/><path d="m361.759 333.683-64.267-32.133c-.011-.005-.022-.011-.033-.017-25.963-12.967-56.955-12.967-82.918 0-.011.006-.022.012-.033.017l-64.267 32.133c-4.651 2.326-10.174 2.077-14.594-.656-4.423-2.733-7.114-7.562-7.114-12.76v-160.667c0-8.284 6.716-15 15-15h34.893c25.297 0 49.079-9.851 66.966-27.738.232-.233.473-.458.719-.674 5.648-4.961 14.131-4.961 19.779 0 .246.216.486.44.719.674 17.887 17.888 41.669 27.738 66.966 27.738h34.893c8.284 0 15 6.716 15 15v160.667c0 5.198-2.691 10.026-7.114 12.76-4.422 2.731-9.942 2.982-14.595.656z" fill="#ffbea0"/><path d="m297.459 301.533c.011.006.022.012.033.017l64.267 32.133c4.653 2.327 10.174 2.075 14.594-.656 4.423-2.733 7.114-7.562 7.114-12.76v-160.667c0-8.284-6.716-15-15-15h-34.893c-25.297 0-49.079-9.851-66.966-27.738-.232-.233-.473-.458-.719-.674-2.824-2.48-6.357-3.721-9.89-3.721v179.341c14.24 0 28.479 3.242 41.46 9.725z" fill="#e19682"/><circle clip-rule="evenodd" cx="207.8" cy="223.867" fill="#283741" fill-rule="evenodd" r="15"/><circle clip-rule="evenodd" cx="304.2" cy="223.867" fill="#0a141e" fill-rule="evenodd" r="15"/><path d="m439.458 483.58-128.533-64.267c-4.65-2.325-10.171-2.077-14.594.657-4.422 2.733-7.114 7.561-7.114 12.76v16.066c0 18.336-14.864 33.2-33.2 33.2s-33.2-14.864-33.2-33.2v-16.066c0-5.199-2.692-10.027-7.114-12.76-4.422-2.734-9.944-2.981-14.594-.657l-128.534 64.267c-7.41 3.705-10.413 12.715-6.708 20.125 2.628 5.256 7.926 8.295 13.428 8.295h353.443c5.502 0 10.8-3.039 13.428-8.295 3.705-7.41.701-16.42-6.708-20.125z" fill="#82503c"/><path d="m439.458 483.58-128.533-64.267c-4.65-2.325-10.171-2.077-14.594.657-4.422 2.733-7.114 7.561-7.114 12.76v16.066c0 18.336-14.864 33.2-33.2 33.2-.005 0-.011 0-.016 0v30.004h176.738c5.502 0 10.8-3.039 13.428-8.295 3.704-7.41.7-16.42-6.709-20.125z" fill="#50321e"/><path d="m304.244 369.549h-96.433c-8.284 0-15 6.716-15 15v64.266c0 34.909 28.306 63.191 63.216 63.185 34.91.006 63.216-28.276 63.216-63.185v-64.266c.001-8.284-6.715-15-14.999-15z" fill="#e19682"/><path d="m319.216 448.815v-64.266c0-8.284-6.716-15-15-15h-48.216v142.451c34.91.006 63.216-28.276 63.216-63.185z" fill="#c36e64"/><path d="m256 426.91c-18.861 0-37.715-4.297-54.908-12.893l-21.159-10.579c-31.706-15.856-51.4-47.725-51.4-83.171 0-5.682 3.21-10.875 8.292-13.417l64.267-32.134c34.382-17.191 75.435-17.191 109.817-.001l64.267 32.134c5.082 2.541 8.292 7.735 8.292 13.417 0 35.446-19.694 67.315-51.397 83.17l-21.161 10.58c-17.191 8.595-36.054 12.894-54.91 12.894z" fill="#f0f5fa"/><path d="m310.908 414.017 21.161-10.58c31.703-15.855 51.397-47.724 51.397-83.17 0-5.682-3.21-10.875-8.292-13.417l-64.267-32.134c-17.196-8.597-36.06-12.895-54.924-12.892v165.086h.016c18.857 0 37.72-4.299 54.909-12.893z" fill="#dfe3e9"/></g></svg>