<svg xmlns="http://www.w3.org/2000/svg" id="Layer_1" enable-background="new 0 0 512 512" height="512" viewBox="0 0 512 512" width="512"><g><path d="m143.531 176.733h-31.358c-25.847 0-47.471 20.484-47.902 46.328-.441 26.4 20.828 47.939 47.127 47.939h32.133c8.284 0 15-6.716 15-15v-64.267c0-8.284-6.716-15-15-15z" fill="#82503c"/><path d="m368.465 176.733h31.358c25.847 0 47.471 20.484 47.902 46.328.441 26.4-20.827 47.939-47.127 47.939h-32.133c-8.284 0-15-6.716-15-15v-64.267c0-8.284 6.715-15 15-15z" fill="#50321e"/><path d="m361.757 317.619-64.267-32.133c-25.981-12.994-57.002-12.994-82.983-.001l-64.268 32.134c-4.649 2.324-10.172 2.076-14.594-.657s-7.114-7.561-7.114-12.76v-180.264c0-43.708 35.559-79.267 79.267-79.267h96.4c43.708 0 79.267 35.559 79.267 79.267v180.265c0 5.199-2.692 10.027-7.114 12.76-4.427 2.735-9.95 2.979-14.594.656z" fill="#b46e5a"/><path d="m297.49 285.486 64.267 32.133c4.645 2.322 10.167 2.079 14.594-.657 4.422-2.733 7.114-7.561 7.114-12.76v-180.264c0-43.708-35.559-79.267-79.267-79.267h-48.201v231.069c14.251 0 28.502 3.249 41.493 9.746z" fill="#82503c"/><circle clip-rule="evenodd" cx="207.798" cy="207.8" fill="#283741" fill-rule="evenodd" r="15"/><circle clip-rule="evenodd" cx="304.198" cy="207.8" fill="#0a141e" fill-rule="evenodd" r="15"/><path d="m477.344 488.676c-12.112-18.169-29.081-32.392-49.068-41.13l-102-44.626c-5.654-2.473-12.252-1.23-16.618 3.136l-53.659 53.658-53.657-53.656c-4.366-4.366-10.964-5.609-16.618-3.136l-102 44.626c-19.987 8.738-36.956 22.961-49.068 41.13-4.596 6.893-2.732 16.206 4.16 20.801 2.557 1.705 5.447 2.521 8.307 2.521l417.755-.002c2.859 0 5.75-.816 8.307-2.521 6.892-4.595 8.755-13.908 4.159-20.801z" fill="#ffb400"/><path d="m473.184 509.479c6.893-4.595 8.756-13.908 4.16-20.801-12.112-18.169-29.081-32.392-49.068-41.13l-102-44.626c-5.654-2.473-12.252-1.23-16.618 3.136l-53.659 53.658-.001-.001v52.285l208.88-.001c2.859 0 5.75-.816 8.306-2.52z" fill="#ff8200"/><path d="m374.477 424.012-48.2-21.088c-5.658-2.475-12.252-1.23-16.619 3.136l-53.66 53.659-53.66-53.659c-4.366-4.366-10.96-5.611-16.619-3.136l-48.2 21.088c-6.809 2.979-10.41 10.495-8.465 17.668l16.067 59.244c2.017 7.438 9.342 12.137 16.943 10.87l93.934-15.656 93.934 15.656c7.602 1.267 14.926-3.432 16.943-10.87l16.067-59.244c1.945-7.173-1.656-14.689-8.465-17.668z" fill="#ffe100"/><path d="m349.932 511.794c7.602 1.267 14.926-3.432 16.943-10.87l16.067-59.244c1.945-7.173-1.656-14.689-8.465-17.668l-48.2-21.088c-5.658-2.475-12.252-1.23-16.619 3.136l-53.66 53.659v36.419z" fill="#ffb400"/><path d="m255.998 495.933c-3.839 0-7.678-1.464-10.606-4.394l-64.267-64.267c-2.813-2.813-4.394-6.628-4.394-10.606v-40.166c0-8.284 6.716-15 15-15h128.533c8.284 0 15 6.716 15 15v40.167c0 3.978-1.58 7.793-4.394 10.606l-64.267 64.267c-2.927 2.929-6.766 4.393-10.605 4.393z" fill="#82503c"/><path d="m330.871 427.273c2.813-2.813 4.394-6.628 4.394-10.606v-40.167c0-8.284-6.716-15-15-15h-64.267v134.433c3.839 0 7.678-1.464 10.606-4.394z" fill="#50321e"/><path d="m255.997 406.582c-24.377 0-48.753-5.555-70.974-16.665-22.36-11.182-56.492-35.595-56.492-85.717 0-5.682 3.21-10.875 8.292-13.417l64.267-32.133c34.382-17.194 75.436-17.194 109.818.001l64.265 32.132c5.082 2.541 8.292 7.735 8.292 13.417 0 50.18-34.208 74.572-56.491 85.716-22.222 11.111-46.6 16.666-70.977 16.666z" fill="#f0f5fa"/><path d="m383.465 304.2c0-5.682-3.21-10.875-8.292-13.417l-64.265-32.132c-17.191-8.598-36.05-12.896-54.91-12.896v160.827c24.377 0 48.755-5.555 70.976-16.666 22.283-11.144 56.491-35.535 56.491-85.716z" fill="#dfe3e9"/><path d="m364.448 126.4c-8.04 0-15.807-2.013-22.676-5.792-7.921 3.774-16.691 5.792-25.524 5.792-10.444 0-20.635-2.771-29.601-7.946-9.321 5.173-19.881 7.946-30.649 7.946-11.669 0-22.927-3.177-32.7-9.107-9.372 5.932-20.229 9.107-31.566 9.107-8.833 0-17.604-2.017-25.524-5.791-6.869 3.778-14.636 5.791-22.676 5.791-25.989 0-47.133-21.144-47.133-47.133s21.144-47.133 47.133-47.133c.181 0 .361.001.543.003 11.068-14.914 28.787-24.103 47.657-24.103 8.811 0 17.317 1.903 25.122 5.574 11.048-8.755 24.772-13.608 39.144-13.608 13.619 0 26.852 4.459 37.687 12.495 7.109-2.938 14.748-4.461 22.563-4.461 18.87 0 36.589 9.189 47.657 24.103.182-.002.362-.003.543-.003 25.989 0 47.133 21.144 47.133 47.133s-21.144 47.133-47.133 47.133z" fill="#283741"/><path d="m364.448 32.133c-.181 0-.361.001-.543.003-11.068-14.914-28.787-24.103-47.657-24.103-7.815 0-15.454 1.523-22.563 4.461-10.836-8.035-24.068-12.494-37.687-12.494v126.4c10.769 0 21.328-2.773 30.649-7.946 8.966 5.175 19.156 7.946 29.601 7.946 8.833 0 17.604-2.017 25.524-5.792 6.869 3.779 14.636 5.792 22.676 5.792 25.989 0 47.133-21.144 47.133-47.133s-21.144-47.134-47.133-47.134z" fill="#0a141e"/></g></svg>